%TF.GenerationSoftware,KiCad,Pcbnew,7.0.5*%
%TF.CreationDate,2023-06-29T13:10:02+12:00*%
%TF.ProjectId,manipulator_PCB,6d616e69-7075-46c6-9174-6f725f504342,rev?*%
%TF.SameCoordinates,Original*%
%TF.FileFunction,Legend,Top*%
%TF.FilePolarity,Positive*%
%FSLAX46Y46*%
G04 Gerber Fmt 4.6, Leading zero omitted, Abs format (unit mm)*
G04 Created by KiCad (PCBNEW 7.0.5) date 2023-06-29 13:10:02*
%MOMM*%
%LPD*%
G01*
G04 APERTURE LIST*
%ADD10C,0.150000*%
%ADD11C,0.120000*%
G04 APERTURE END LIST*
D10*
%TO.C,J9*%
X40136666Y-45794819D02*
X40136666Y-46509104D01*
X40136666Y-46509104D02*
X40089047Y-46651961D01*
X40089047Y-46651961D02*
X39993809Y-46747200D01*
X39993809Y-46747200D02*
X39850952Y-46794819D01*
X39850952Y-46794819D02*
X39755714Y-46794819D01*
X40660476Y-46794819D02*
X40850952Y-46794819D01*
X40850952Y-46794819D02*
X40946190Y-46747200D01*
X40946190Y-46747200D02*
X40993809Y-46699580D01*
X40993809Y-46699580D02*
X41089047Y-46556723D01*
X41089047Y-46556723D02*
X41136666Y-46366247D01*
X41136666Y-46366247D02*
X41136666Y-45985295D01*
X41136666Y-45985295D02*
X41089047Y-45890057D01*
X41089047Y-45890057D02*
X41041428Y-45842438D01*
X41041428Y-45842438D02*
X40946190Y-45794819D01*
X40946190Y-45794819D02*
X40755714Y-45794819D01*
X40755714Y-45794819D02*
X40660476Y-45842438D01*
X40660476Y-45842438D02*
X40612857Y-45890057D01*
X40612857Y-45890057D02*
X40565238Y-45985295D01*
X40565238Y-45985295D02*
X40565238Y-46223390D01*
X40565238Y-46223390D02*
X40612857Y-46318628D01*
X40612857Y-46318628D02*
X40660476Y-46366247D01*
X40660476Y-46366247D02*
X40755714Y-46413866D01*
X40755714Y-46413866D02*
X40946190Y-46413866D01*
X40946190Y-46413866D02*
X41041428Y-46366247D01*
X41041428Y-46366247D02*
X41089047Y-46318628D01*
X41089047Y-46318628D02*
X41136666Y-46223390D01*
%TO.C,J8*%
X40136666Y-34204819D02*
X40136666Y-34919104D01*
X40136666Y-34919104D02*
X40089047Y-35061961D01*
X40089047Y-35061961D02*
X39993809Y-35157200D01*
X39993809Y-35157200D02*
X39850952Y-35204819D01*
X39850952Y-35204819D02*
X39755714Y-35204819D01*
X40755714Y-34633390D02*
X40660476Y-34585771D01*
X40660476Y-34585771D02*
X40612857Y-34538152D01*
X40612857Y-34538152D02*
X40565238Y-34442914D01*
X40565238Y-34442914D02*
X40565238Y-34395295D01*
X40565238Y-34395295D02*
X40612857Y-34300057D01*
X40612857Y-34300057D02*
X40660476Y-34252438D01*
X40660476Y-34252438D02*
X40755714Y-34204819D01*
X40755714Y-34204819D02*
X40946190Y-34204819D01*
X40946190Y-34204819D02*
X41041428Y-34252438D01*
X41041428Y-34252438D02*
X41089047Y-34300057D01*
X41089047Y-34300057D02*
X41136666Y-34395295D01*
X41136666Y-34395295D02*
X41136666Y-34442914D01*
X41136666Y-34442914D02*
X41089047Y-34538152D01*
X41089047Y-34538152D02*
X41041428Y-34585771D01*
X41041428Y-34585771D02*
X40946190Y-34633390D01*
X40946190Y-34633390D02*
X40755714Y-34633390D01*
X40755714Y-34633390D02*
X40660476Y-34681009D01*
X40660476Y-34681009D02*
X40612857Y-34728628D01*
X40612857Y-34728628D02*
X40565238Y-34823866D01*
X40565238Y-34823866D02*
X40565238Y-35014342D01*
X40565238Y-35014342D02*
X40612857Y-35109580D01*
X40612857Y-35109580D02*
X40660476Y-35157200D01*
X40660476Y-35157200D02*
X40755714Y-35204819D01*
X40755714Y-35204819D02*
X40946190Y-35204819D01*
X40946190Y-35204819D02*
X41041428Y-35157200D01*
X41041428Y-35157200D02*
X41089047Y-35109580D01*
X41089047Y-35109580D02*
X41136666Y-35014342D01*
X41136666Y-35014342D02*
X41136666Y-34823866D01*
X41136666Y-34823866D02*
X41089047Y-34728628D01*
X41089047Y-34728628D02*
X41041428Y-34681009D01*
X41041428Y-34681009D02*
X40946190Y-34633390D01*
D11*
%TO.C,J9*%
X32820000Y-52960000D02*
X32820000Y-54700000D01*
X32820000Y-54700000D02*
X34320000Y-54700000D01*
X33060000Y-47340000D02*
X33060000Y-54460000D01*
X33060000Y-47340000D02*
X47880000Y-47340000D01*
X33060000Y-52900000D02*
X47880000Y-52900000D01*
X33060000Y-54460000D02*
X47880000Y-54460000D01*
X47880000Y-47340000D02*
X47880000Y-54460000D01*
X33788000Y-50192000D02*
G75*
G03*
X33787891Y-51407742I1432000J-608000D01*
G01*
X35828000Y-49368000D02*
G75*
G03*
X34612258Y-49367891I-608000J-1432000D01*
G01*
X34612000Y-52231999D02*
G75*
G03*
X35247011Y-52355492I607998J1431987D01*
G01*
X35220000Y-52354999D02*
G75*
G03*
X35827587Y-52231384I0J1554999D01*
G01*
X36652000Y-51408000D02*
G75*
G03*
X36652109Y-50192258I-1432003J607999D01*
G01*
X40275000Y-50800000D02*
G75*
G03*
X40275000Y-50800000I-1555000J0D01*
G01*
X43775000Y-50800000D02*
G75*
G03*
X43775000Y-50800000I-1555000J0D01*
G01*
X47275000Y-50800000D02*
G75*
G03*
X47275000Y-50800000I-1555000J0D01*
G01*
%TO.C,J8*%
X32820000Y-41370000D02*
X32820000Y-43110000D01*
X32820000Y-43110000D02*
X34320000Y-43110000D01*
X33060000Y-35750000D02*
X33060000Y-42870000D01*
X33060000Y-35750000D02*
X47880000Y-35750000D01*
X33060000Y-41310000D02*
X47880000Y-41310000D01*
X33060000Y-42870000D02*
X47880000Y-42870000D01*
X47880000Y-35750000D02*
X47880000Y-42870000D01*
X33788000Y-38602000D02*
G75*
G03*
X33787891Y-39817742I1432000J-608000D01*
G01*
X35828000Y-37778000D02*
G75*
G03*
X34612258Y-37777891I-608000J-1432000D01*
G01*
X34612000Y-40641999D02*
G75*
G03*
X35247011Y-40765492I607998J1431987D01*
G01*
X35220000Y-40764999D02*
G75*
G03*
X35827587Y-40641384I0J1554999D01*
G01*
X36652000Y-39818000D02*
G75*
G03*
X36652109Y-38602258I-1432003J607999D01*
G01*
X40275000Y-39210000D02*
G75*
G03*
X40275000Y-39210000I-1555000J0D01*
G01*
X43775000Y-39210000D02*
G75*
G03*
X43775000Y-39210000I-1555000J0D01*
G01*
X47275000Y-39210000D02*
G75*
G03*
X47275000Y-39210000I-1555000J0D01*
G01*
%TD*%
M02*
