M48
; DRILL file {KiCad 7.0.5} date Wed Jul 19 13:34:54 2023
; FORMAT={-:-/ absolute / inch / decimal}
; #@! TF.CreationDate,2023-07-19T13:34:54+12:00
; #@! TF.GenerationSoftware,Kicad,Pcbnew,7.0.5
; #@! TF.FileFunction,Plated,1,2,PTH
FMAT,2
INCH
; #@! TA.AperFunction,Plated,PTH,ComponentDrill
T1C0.0300
; #@! TA.AperFunction,Plated,PTH,ComponentDrill
T2C0.0394
; #@! TA.AperFunction,Plated,PTH,ComponentDrill
T3C0.0472
%
G90
G05
T1
X4.5Y-4.35
X4.5Y-5.35
X4.6Y-4.35
X4.6Y-5.35
X4.7Y-3.35
X4.7Y-4.05
X4.7Y-4.35
X4.7Y-5.35
X4.8Y-4.35
X4.8Y-5.35
X4.9Y-4.35
X4.9Y-5.35
X5.0Y-4.35
X5.0Y-5.35
X5.1Y-4.35
X5.1Y-5.35
X5.2Y-4.35
X5.2Y-5.35
X5.3Y-4.35
X5.3Y-5.35
X5.4Y-4.35
X5.4Y-5.35
X5.5Y-4.35
X5.5Y-5.35
X5.6Y-4.35
X5.6Y-5.35
X5.7Y-4.35
X5.7Y-5.35
X5.8Y-4.35
X5.8Y-5.35
X5.9Y-4.35
X5.9Y-5.35
X6.0Y-4.35
X6.0Y-5.35
X6.1Y-4.35
X6.1Y-5.35
X6.2Y-3.35
X6.2Y-4.05
X6.2Y-4.35
X6.2Y-5.35
X6.3Y-4.35
X6.3Y-5.35
T3
X4.8Y-2.85
X4.8Y-5.75
X4.9378Y-2.85
X4.9969Y-5.75
X5.1937Y-5.75
X5.2Y-2.85
X5.3378Y-2.85
X5.6Y-2.85
X5.7378Y-2.85
X5.8Y-5.75
X5.9969Y-5.75
X6.0Y-2.85
X6.1378Y-2.85
X6.1937Y-5.75
X6.7Y-2.75
X6.7Y-2.8878
X6.7Y-3.0256
X6.7Y-3.1634
X6.7Y-3.45
X6.7Y-3.5878
X6.7Y-3.7256
X6.7Y-3.8634
X6.7Y-4.15
X6.7Y-4.2878
X6.7Y-4.4256
X6.7Y-4.5634
X6.7Y-4.85
X6.7Y-4.9878
X6.7Y-5.1256
X6.7Y-5.2634
T2
G00X4.2Y-3.4106
M15
G01X4.2Y-3.4894
M16
G05
G00X4.2787Y-3.635
M15
G01X4.3575Y-3.635
M16
G05
G00X4.4362Y-3.4106
M15
G01X4.4362Y-3.4894
M16
G05
T0
M30
