%TF.GenerationSoftware,KiCad,Pcbnew,7.0.5*%
%TF.CreationDate,2023-07-19T13:34:52+12:00*%
%TF.ProjectId,manipulator_PCB,6d616e69-7075-46c6-9174-6f725f504342,rev?*%
%TF.SameCoordinates,Original*%
%TF.FileFunction,Profile,NP*%
%FSLAX46Y46*%
G04 Gerber Fmt 4.6, Leading zero omitted, Abs format (unit mm)*
G04 Created by KiCad (PCBNEW 7.0.5) date 2023-07-19 13:34:52*
%MOMM*%
%LPD*%
G01*
G04 APERTURE LIST*
%ADD10C,0.150000*%
%TA.AperFunction,Profile*%
%ADD11C,0.100000*%
%TD*%
G04 APERTURE END LIST*
D10*
X75504819Y-111838808D02*
X75504819Y-111648332D01*
X75504819Y-111648332D02*
X75457200Y-111553094D01*
X75457200Y-111553094D02*
X75409580Y-111505475D01*
X75409580Y-111505475D02*
X75266723Y-111410237D01*
X75266723Y-111410237D02*
X75076247Y-111362618D01*
X75076247Y-111362618D02*
X74695295Y-111362618D01*
X74695295Y-111362618D02*
X74600057Y-111410237D01*
X74600057Y-111410237D02*
X74552438Y-111457856D01*
X74552438Y-111457856D02*
X74504819Y-111553094D01*
X74504819Y-111553094D02*
X74504819Y-111743570D01*
X74504819Y-111743570D02*
X74552438Y-111838808D01*
X74552438Y-111838808D02*
X74600057Y-111886427D01*
X74600057Y-111886427D02*
X74695295Y-111934046D01*
X74695295Y-111934046D02*
X74933390Y-111934046D01*
X74933390Y-111934046D02*
X75028628Y-111886427D01*
X75028628Y-111886427D02*
X75076247Y-111838808D01*
X75076247Y-111838808D02*
X75123866Y-111743570D01*
X75123866Y-111743570D02*
X75123866Y-111553094D01*
X75123866Y-111553094D02*
X75076247Y-111457856D01*
X75076247Y-111457856D02*
X75028628Y-111410237D01*
X75028628Y-111410237D02*
X74933390Y-111362618D01*
X74504819Y-110743570D02*
X74504819Y-110648332D01*
X74504819Y-110648332D02*
X74552438Y-110553094D01*
X74552438Y-110553094D02*
X74600057Y-110505475D01*
X74600057Y-110505475D02*
X74695295Y-110457856D01*
X74695295Y-110457856D02*
X74885771Y-110410237D01*
X74885771Y-110410237D02*
X75123866Y-110410237D01*
X75123866Y-110410237D02*
X75314342Y-110457856D01*
X75314342Y-110457856D02*
X75409580Y-110505475D01*
X75409580Y-110505475D02*
X75457200Y-110553094D01*
X75457200Y-110553094D02*
X75504819Y-110648332D01*
X75504819Y-110648332D02*
X75504819Y-110743570D01*
X75504819Y-110743570D02*
X75457200Y-110838808D01*
X75457200Y-110838808D02*
X75409580Y-110886427D01*
X75409580Y-110886427D02*
X75314342Y-110934046D01*
X75314342Y-110934046D02*
X75123866Y-110981665D01*
X75123866Y-110981665D02*
X74885771Y-110981665D01*
X74885771Y-110981665D02*
X74695295Y-110934046D01*
X74695295Y-110934046D02*
X74600057Y-110886427D01*
X74600057Y-110886427D02*
X74552438Y-110838808D01*
X74552438Y-110838808D02*
X74504819Y-110743570D01*
X75409580Y-109981665D02*
X75457200Y-109934046D01*
X75457200Y-109934046D02*
X75504819Y-109981665D01*
X75504819Y-109981665D02*
X75457200Y-110029284D01*
X75457200Y-110029284D02*
X75409580Y-109981665D01*
X75409580Y-109981665D02*
X75504819Y-109981665D01*
X75504819Y-108981666D02*
X75504819Y-109553094D01*
X75504819Y-109267380D02*
X74504819Y-109267380D01*
X74504819Y-109267380D02*
X74647676Y-109362618D01*
X74647676Y-109362618D02*
X74742914Y-109457856D01*
X74742914Y-109457856D02*
X74790533Y-109553094D01*
X74504819Y-108648332D02*
X74504819Y-107981666D01*
X74504819Y-107981666D02*
X75504819Y-108410237D01*
X74504819Y-107410237D02*
X74504819Y-107314999D01*
X74504819Y-107314999D02*
X74552438Y-107219761D01*
X74552438Y-107219761D02*
X74600057Y-107172142D01*
X74600057Y-107172142D02*
X74695295Y-107124523D01*
X74695295Y-107124523D02*
X74885771Y-107076904D01*
X74885771Y-107076904D02*
X75123866Y-107076904D01*
X75123866Y-107076904D02*
X75314342Y-107124523D01*
X75314342Y-107124523D02*
X75409580Y-107172142D01*
X75409580Y-107172142D02*
X75457200Y-107219761D01*
X75457200Y-107219761D02*
X75504819Y-107314999D01*
X75504819Y-107314999D02*
X75504819Y-107410237D01*
X75504819Y-107410237D02*
X75457200Y-107505475D01*
X75457200Y-107505475D02*
X75409580Y-107553094D01*
X75409580Y-107553094D02*
X75314342Y-107600713D01*
X75314342Y-107600713D02*
X75123866Y-107648332D01*
X75123866Y-107648332D02*
X74885771Y-107648332D01*
X74885771Y-107648332D02*
X74695295Y-107600713D01*
X74695295Y-107600713D02*
X74600057Y-107553094D01*
X74600057Y-107553094D02*
X74552438Y-107505475D01*
X74552438Y-107505475D02*
X74504819Y-107410237D01*
X74504819Y-106457856D02*
X74504819Y-106362618D01*
X74504819Y-106362618D02*
X74552438Y-106267380D01*
X74552438Y-106267380D02*
X74600057Y-106219761D01*
X74600057Y-106219761D02*
X74695295Y-106172142D01*
X74695295Y-106172142D02*
X74885771Y-106124523D01*
X74885771Y-106124523D02*
X75123866Y-106124523D01*
X75123866Y-106124523D02*
X75314342Y-106172142D01*
X75314342Y-106172142D02*
X75409580Y-106219761D01*
X75409580Y-106219761D02*
X75457200Y-106267380D01*
X75457200Y-106267380D02*
X75504819Y-106362618D01*
X75504819Y-106362618D02*
X75504819Y-106457856D01*
X75504819Y-106457856D02*
X75457200Y-106553094D01*
X75457200Y-106553094D02*
X75409580Y-106600713D01*
X75409580Y-106600713D02*
X75314342Y-106648332D01*
X75314342Y-106648332D02*
X75123866Y-106695951D01*
X75123866Y-106695951D02*
X74885771Y-106695951D01*
X74885771Y-106695951D02*
X74695295Y-106648332D01*
X74695295Y-106648332D02*
X74600057Y-106600713D01*
X74600057Y-106600713D02*
X74552438Y-106553094D01*
X74552438Y-106553094D02*
X74504819Y-106457856D01*
X75504819Y-104934046D02*
X74838152Y-104934046D01*
X74933390Y-104934046D02*
X74885771Y-104886427D01*
X74885771Y-104886427D02*
X74838152Y-104791189D01*
X74838152Y-104791189D02*
X74838152Y-104648332D01*
X74838152Y-104648332D02*
X74885771Y-104553094D01*
X74885771Y-104553094D02*
X74981009Y-104505475D01*
X74981009Y-104505475D02*
X75504819Y-104505475D01*
X74981009Y-104505475D02*
X74885771Y-104457856D01*
X74885771Y-104457856D02*
X74838152Y-104362618D01*
X74838152Y-104362618D02*
X74838152Y-104219761D01*
X74838152Y-104219761D02*
X74885771Y-104124522D01*
X74885771Y-104124522D02*
X74981009Y-104076903D01*
X74981009Y-104076903D02*
X75504819Y-104076903D01*
X75504819Y-103600713D02*
X74838152Y-103600713D01*
X74933390Y-103600713D02*
X74885771Y-103553094D01*
X74885771Y-103553094D02*
X74838152Y-103457856D01*
X74838152Y-103457856D02*
X74838152Y-103314999D01*
X74838152Y-103314999D02*
X74885771Y-103219761D01*
X74885771Y-103219761D02*
X74981009Y-103172142D01*
X74981009Y-103172142D02*
X75504819Y-103172142D01*
X74981009Y-103172142D02*
X74885771Y-103124523D01*
X74885771Y-103124523D02*
X74838152Y-103029285D01*
X74838152Y-103029285D02*
X74838152Y-102886428D01*
X74838152Y-102886428D02*
X74885771Y-102791189D01*
X74885771Y-102791189D02*
X74981009Y-102743570D01*
X74981009Y-102743570D02*
X75504819Y-102743570D01*
D11*
X101100000Y-62230000D02*
X75613580Y-62230000D01*
X101100000Y-152400000D02*
X75613580Y-152400000D01*
X76200000Y-62230000D02*
X76200000Y-152400000D01*
X76200000Y-62230000D02*
X76200000Y-152400000D01*
X76200000Y-62230000D02*
X76786421Y-63356504D01*
X76200000Y-62230000D02*
X75613579Y-63356504D01*
X76200000Y-152400000D02*
X75613579Y-151273496D01*
X76200000Y-152400000D02*
X76786421Y-151273496D01*
D10*
X135033334Y-35134819D02*
X135700000Y-35134819D01*
X135700000Y-35134819D02*
X135271429Y-36134819D01*
X136509524Y-35134819D02*
X136319048Y-35134819D01*
X136319048Y-35134819D02*
X136223810Y-35182438D01*
X136223810Y-35182438D02*
X136176191Y-35230057D01*
X136176191Y-35230057D02*
X136080953Y-35372914D01*
X136080953Y-35372914D02*
X136033334Y-35563390D01*
X136033334Y-35563390D02*
X136033334Y-35944342D01*
X136033334Y-35944342D02*
X136080953Y-36039580D01*
X136080953Y-36039580D02*
X136128572Y-36087200D01*
X136128572Y-36087200D02*
X136223810Y-36134819D01*
X136223810Y-36134819D02*
X136414286Y-36134819D01*
X136414286Y-36134819D02*
X136509524Y-36087200D01*
X136509524Y-36087200D02*
X136557143Y-36039580D01*
X136557143Y-36039580D02*
X136604762Y-35944342D01*
X136604762Y-35944342D02*
X136604762Y-35706247D01*
X136604762Y-35706247D02*
X136557143Y-35611009D01*
X136557143Y-35611009D02*
X136509524Y-35563390D01*
X136509524Y-35563390D02*
X136414286Y-35515771D01*
X136414286Y-35515771D02*
X136223810Y-35515771D01*
X136223810Y-35515771D02*
X136128572Y-35563390D01*
X136128572Y-35563390D02*
X136080953Y-35611009D01*
X136080953Y-35611009D02*
X136033334Y-35706247D01*
X137033334Y-36039580D02*
X137080953Y-36087200D01*
X137080953Y-36087200D02*
X137033334Y-36134819D01*
X137033334Y-36134819D02*
X136985715Y-36087200D01*
X136985715Y-36087200D02*
X137033334Y-36039580D01*
X137033334Y-36039580D02*
X137033334Y-36134819D01*
X137461905Y-35230057D02*
X137509524Y-35182438D01*
X137509524Y-35182438D02*
X137604762Y-35134819D01*
X137604762Y-35134819D02*
X137842857Y-35134819D01*
X137842857Y-35134819D02*
X137938095Y-35182438D01*
X137938095Y-35182438D02*
X137985714Y-35230057D01*
X137985714Y-35230057D02*
X138033333Y-35325295D01*
X138033333Y-35325295D02*
X138033333Y-35420533D01*
X138033333Y-35420533D02*
X137985714Y-35563390D01*
X137985714Y-35563390D02*
X137414286Y-36134819D01*
X137414286Y-36134819D02*
X138033333Y-36134819D01*
X138652381Y-35134819D02*
X138747619Y-35134819D01*
X138747619Y-35134819D02*
X138842857Y-35182438D01*
X138842857Y-35182438D02*
X138890476Y-35230057D01*
X138890476Y-35230057D02*
X138938095Y-35325295D01*
X138938095Y-35325295D02*
X138985714Y-35515771D01*
X138985714Y-35515771D02*
X138985714Y-35753866D01*
X138985714Y-35753866D02*
X138938095Y-35944342D01*
X138938095Y-35944342D02*
X138890476Y-36039580D01*
X138890476Y-36039580D02*
X138842857Y-36087200D01*
X138842857Y-36087200D02*
X138747619Y-36134819D01*
X138747619Y-36134819D02*
X138652381Y-36134819D01*
X138652381Y-36134819D02*
X138557143Y-36087200D01*
X138557143Y-36087200D02*
X138509524Y-36039580D01*
X138509524Y-36039580D02*
X138461905Y-35944342D01*
X138461905Y-35944342D02*
X138414286Y-35753866D01*
X138414286Y-35753866D02*
X138414286Y-35515771D01*
X138414286Y-35515771D02*
X138461905Y-35325295D01*
X138461905Y-35325295D02*
X138509524Y-35230057D01*
X138509524Y-35230057D02*
X138557143Y-35182438D01*
X138557143Y-35182438D02*
X138652381Y-35134819D01*
X139604762Y-35134819D02*
X139700000Y-35134819D01*
X139700000Y-35134819D02*
X139795238Y-35182438D01*
X139795238Y-35182438D02*
X139842857Y-35230057D01*
X139842857Y-35230057D02*
X139890476Y-35325295D01*
X139890476Y-35325295D02*
X139938095Y-35515771D01*
X139938095Y-35515771D02*
X139938095Y-35753866D01*
X139938095Y-35753866D02*
X139890476Y-35944342D01*
X139890476Y-35944342D02*
X139842857Y-36039580D01*
X139842857Y-36039580D02*
X139795238Y-36087200D01*
X139795238Y-36087200D02*
X139700000Y-36134819D01*
X139700000Y-36134819D02*
X139604762Y-36134819D01*
X139604762Y-36134819D02*
X139509524Y-36087200D01*
X139509524Y-36087200D02*
X139461905Y-36039580D01*
X139461905Y-36039580D02*
X139414286Y-35944342D01*
X139414286Y-35944342D02*
X139366667Y-35753866D01*
X139366667Y-35753866D02*
X139366667Y-35515771D01*
X139366667Y-35515771D02*
X139414286Y-35325295D01*
X139414286Y-35325295D02*
X139461905Y-35230057D01*
X139461905Y-35230057D02*
X139509524Y-35182438D01*
X139509524Y-35182438D02*
X139604762Y-35134819D01*
X140557143Y-35134819D02*
X140652381Y-35134819D01*
X140652381Y-35134819D02*
X140747619Y-35182438D01*
X140747619Y-35182438D02*
X140795238Y-35230057D01*
X140795238Y-35230057D02*
X140842857Y-35325295D01*
X140842857Y-35325295D02*
X140890476Y-35515771D01*
X140890476Y-35515771D02*
X140890476Y-35753866D01*
X140890476Y-35753866D02*
X140842857Y-35944342D01*
X140842857Y-35944342D02*
X140795238Y-36039580D01*
X140795238Y-36039580D02*
X140747619Y-36087200D01*
X140747619Y-36087200D02*
X140652381Y-36134819D01*
X140652381Y-36134819D02*
X140557143Y-36134819D01*
X140557143Y-36134819D02*
X140461905Y-36087200D01*
X140461905Y-36087200D02*
X140414286Y-36039580D01*
X140414286Y-36039580D02*
X140366667Y-35944342D01*
X140366667Y-35944342D02*
X140319048Y-35753866D01*
X140319048Y-35753866D02*
X140319048Y-35515771D01*
X140319048Y-35515771D02*
X140366667Y-35325295D01*
X140366667Y-35325295D02*
X140414286Y-35230057D01*
X140414286Y-35230057D02*
X140461905Y-35182438D01*
X140461905Y-35182438D02*
X140557143Y-35134819D01*
X142080953Y-36134819D02*
X142080953Y-35468152D01*
X142080953Y-35563390D02*
X142128572Y-35515771D01*
X142128572Y-35515771D02*
X142223810Y-35468152D01*
X142223810Y-35468152D02*
X142366667Y-35468152D01*
X142366667Y-35468152D02*
X142461905Y-35515771D01*
X142461905Y-35515771D02*
X142509524Y-35611009D01*
X142509524Y-35611009D02*
X142509524Y-36134819D01*
X142509524Y-35611009D02*
X142557143Y-35515771D01*
X142557143Y-35515771D02*
X142652381Y-35468152D01*
X142652381Y-35468152D02*
X142795238Y-35468152D01*
X142795238Y-35468152D02*
X142890477Y-35515771D01*
X142890477Y-35515771D02*
X142938096Y-35611009D01*
X142938096Y-35611009D02*
X142938096Y-36134819D01*
X143414286Y-36134819D02*
X143414286Y-35468152D01*
X143414286Y-35563390D02*
X143461905Y-35515771D01*
X143461905Y-35515771D02*
X143557143Y-35468152D01*
X143557143Y-35468152D02*
X143700000Y-35468152D01*
X143700000Y-35468152D02*
X143795238Y-35515771D01*
X143795238Y-35515771D02*
X143842857Y-35611009D01*
X143842857Y-35611009D02*
X143842857Y-36134819D01*
X143842857Y-35611009D02*
X143890476Y-35515771D01*
X143890476Y-35515771D02*
X143985714Y-35468152D01*
X143985714Y-35468152D02*
X144128571Y-35468152D01*
X144128571Y-35468152D02*
X144223810Y-35515771D01*
X144223810Y-35515771D02*
X144271429Y-35611009D01*
X144271429Y-35611009D02*
X144271429Y-36134819D01*
D11*
X101600000Y-61730000D02*
X101600000Y-36243580D01*
X177800000Y-61730000D02*
X177800000Y-36243580D01*
X101600000Y-36830000D02*
X177800000Y-36830000D01*
X101600000Y-36830000D02*
X177800000Y-36830000D01*
X101600000Y-36830000D02*
X102726504Y-36243579D01*
X101600000Y-36830000D02*
X102726504Y-37416421D01*
X177800000Y-36830000D02*
X176673496Y-37416421D01*
X177800000Y-36830000D02*
X176673496Y-36243579D01*
X177800000Y-62230000D02*
X101600000Y-62230000D01*
X101600000Y-152400000D01*
X177800000Y-152400000D01*
X177800000Y-62230000D01*
M02*
