%TF.GenerationSoftware,KiCad,Pcbnew,7.0.5*%
%TF.CreationDate,2023-07-19T13:34:52+12:00*%
%TF.ProjectId,manipulator_PCB,6d616e69-7075-46c6-9174-6f725f504342,rev?*%
%TF.SameCoordinates,Original*%
%TF.FileFunction,Copper,L1,Top*%
%TF.FilePolarity,Positive*%
%FSLAX46Y46*%
G04 Gerber Fmt 4.6, Leading zero omitted, Abs format (unit mm)*
G04 Created by KiCad (PCBNEW 7.0.5) date 2023-07-19 13:34:52*
%MOMM*%
%LPD*%
G01*
G04 APERTURE LIST*
G04 Aperture macros list*
%AMRoundRect*
0 Rectangle with rounded corners*
0 $1 Rounding radius*
0 $2 $3 $4 $5 $6 $7 $8 $9 X,Y pos of 4 corners*
0 Add a 4 corners polygon primitive as box body*
4,1,4,$2,$3,$4,$5,$6,$7,$8,$9,$2,$3,0*
0 Add four circle primitives for the rounded corners*
1,1,$1+$1,$2,$3*
1,1,$1+$1,$4,$5*
1,1,$1+$1,$6,$7*
1,1,$1+$1,$8,$9*
0 Add four rect primitives between the rounded corners*
20,1,$1+$1,$2,$3,$4,$5,0*
20,1,$1+$1,$4,$5,$6,$7,0*
20,1,$1+$1,$6,$7,$8,$9,0*
20,1,$1+$1,$8,$9,$2,$3,0*%
G04 Aperture macros list end*
%TA.AperFunction,ComponentPad*%
%ADD10C,2.400000*%
%TD*%
%TA.AperFunction,ComponentPad*%
%ADD11R,2.400000X2.400000*%
%TD*%
%TA.AperFunction,ComponentPad*%
%ADD12C,3.000000*%
%TD*%
%TA.AperFunction,ComponentPad*%
%ADD13R,3.000000X3.000000*%
%TD*%
%TA.AperFunction,ComponentPad*%
%ADD14RoundRect,0.875000X-0.875000X-0.875000X0.875000X-0.875000X0.875000X0.875000X-0.875000X0.875000X0*%
%TD*%
%TA.AperFunction,ComponentPad*%
%ADD15RoundRect,0.750000X-0.750000X-1.000000X0.750000X-1.000000X0.750000X1.000000X-0.750000X1.000000X0*%
%TD*%
%TA.AperFunction,ComponentPad*%
%ADD16R,3.500000X3.500000*%
%TD*%
%TA.AperFunction,ComponentPad*%
%ADD17C,1.524000*%
%TD*%
G04 APERTURE END LIST*
D10*
%TO.P,J9,2,Pin_2*%
%TO.N,lim2*%
X135580000Y-72390000D03*
D11*
%TO.P,J9,1,Pin_1*%
%TO.N,+3V3*%
X132080000Y-72390000D03*
%TD*%
D10*
%TO.P,J8,2,Pin_2*%
%TO.N,lim1*%
X125420000Y-72390000D03*
D11*
%TO.P,J8,1,Pin_1*%
%TO.N,+3V3*%
X121920000Y-72390000D03*
%TD*%
D10*
%TO.P,J5,2,Pin_2*%
%TO.N,+12V*%
X145740000Y-72390000D03*
D11*
%TO.P,J5,1,Pin_1*%
%TO.N,GND*%
X142240000Y-72390000D03*
%TD*%
D10*
%TO.P,J4,4,Pin_4*%
%TO.N,STEP2*%
X170180000Y-115910000D03*
%TO.P,J4,3,Pin_3*%
%TO.N,GND*%
X170180000Y-112410000D03*
%TO.P,J4,2,Pin_2*%
%TO.N,DIR2*%
X170180000Y-108910000D03*
D11*
%TO.P,J4,1,Pin_1*%
%TO.N,GND*%
X170180000Y-105410000D03*
%TD*%
D10*
%TO.P,J7,4,Pin_4*%
%TO.N,SCL2*%
X170180000Y-98130000D03*
%TO.P,J7,3,Pin_3*%
%TO.N,SDA2*%
X170180000Y-94630000D03*
%TO.P,J7,2,Pin_2*%
%TO.N,GND*%
X170180000Y-91130000D03*
D11*
%TO.P,J7,1,Pin_1*%
%TO.N,+5V*%
X170180000Y-87630000D03*
%TD*%
D12*
%TO.P,RV1,3,3*%
%TO.N,GND*%
X131920000Y-146050000D03*
%TO.P,RV1,2,2*%
%TO.N,Net-(U2-32)*%
X126920000Y-146050000D03*
D13*
%TO.P,RV1,1,1*%
%TO.N,+3V3*%
X121920000Y-146050000D03*
%TD*%
D10*
%TO.P,J6,4,Pin_4*%
%TO.N,SCL1*%
X170180000Y-80350000D03*
%TO.P,J6,3,Pin_3*%
%TO.N,SDA1*%
X170180000Y-76850000D03*
%TO.P,J6,2,Pin_2*%
%TO.N,GND*%
X170180000Y-73350000D03*
D11*
%TO.P,J6,1,Pin_1*%
%TO.N,+5V*%
X170180000Y-69850000D03*
%TD*%
D10*
%TO.P,J2,4,Pin_4*%
%TO.N,STEP1*%
X170180000Y-133690000D03*
%TO.P,J2,3,Pin_3*%
%TO.N,GND*%
X170180000Y-130190000D03*
%TO.P,J2,2,Pin_2*%
%TO.N,DIR1*%
X170180000Y-126690000D03*
D11*
%TO.P,J2,1,Pin_1*%
%TO.N,GND*%
X170180000Y-123190000D03*
%TD*%
D14*
%TO.P,J1,3*%
%TO.N,GND*%
X109680000Y-92330000D03*
D15*
%TO.P,J1,2*%
X106680000Y-87630000D03*
D16*
%TO.P,J1,1*%
%TO.N,+12V*%
X112680000Y-87630000D03*
%TD*%
D12*
%TO.P,RV2,3,3*%
%TO.N,GND*%
X157320000Y-146050000D03*
%TO.P,RV2,2,2*%
%TO.N,Net-(U2-33)*%
X152320000Y-146050000D03*
D13*
%TO.P,RV2,1,1*%
%TO.N,+3V3*%
X147320000Y-146050000D03*
%TD*%
D17*
%TO.P,U1,4,VOUT+*%
%TO.N,+5V*%
X157480000Y-85090000D03*
%TO.P,U1,3,VOUT-*%
%TO.N,GND*%
X157480000Y-102870000D03*
%TO.P,U1,2,VIN-*%
X119380000Y-102870000D03*
%TO.P,U1,1,VIN+*%
%TO.N,+12V*%
X119380000Y-85090000D03*
%TD*%
%TO.P,U2,38,GND*%
%TO.N,GND*%
X114300000Y-110490000D03*
%TO.P,U2,37,23*%
%TO.N,SDA1*%
X116840000Y-110490000D03*
%TO.P,U2,36,22*%
%TO.N,SCL1*%
X119380000Y-110490000D03*
%TO.P,U2,35,RX*%
%TO.N,unconnected-(U2-RX-Pad35)*%
X121920000Y-110490000D03*
%TO.P,U2,34,RX*%
%TO.N,unconnected-(U2-RX-Pad34)*%
X124460000Y-110490000D03*
%TO.P,U2,33,21*%
%TO.N,unconnected-(U2-21-Pad33)*%
X127000000Y-110490000D03*
%TO.P,U2,32,GND*%
%TO.N,GND*%
X129540000Y-110490000D03*
%TO.P,U2,31,19*%
%TO.N,SDA2*%
X132080000Y-110490000D03*
%TO.P,U2,30,18*%
%TO.N,SCL2*%
X134620000Y-110490000D03*
%TO.P,U2,29,5*%
%TO.N,unconnected-(U2-5-Pad29)*%
X137160000Y-110490000D03*
%TO.P,U2,28,17*%
%TO.N,S2*%
X139700000Y-110490000D03*
%TO.P,U2,27,16*%
%TO.N,S1*%
X142240000Y-110490000D03*
%TO.P,U2,26,4*%
%TO.N,unconnected-(U2-4-Pad26)*%
X144780000Y-110490000D03*
%TO.P,U2,25,0*%
%TO.N,unconnected-(U2-0-Pad25)*%
X147320000Y-110490000D03*
%TO.P,U2,24,2*%
%TO.N,unconnected-(U2-2-Pad24)*%
X149860000Y-110490000D03*
%TO.P,U2,23,15*%
%TO.N,unconnected-(U2-15-Pad23)*%
X152400000Y-110490000D03*
%TO.P,U2,22,D1*%
%TO.N,unconnected-(U2-D1-Pad22)*%
X154940000Y-110490000D03*
%TO.P,U2,21,D0*%
%TO.N,unconnected-(U2-D0-Pad21)*%
X157480000Y-110490000D03*
%TO.P,U2,20,CLK*%
%TO.N,unconnected-(U2-CLK-Pad20)*%
X160020000Y-110490000D03*
%TO.P,U2,19,5V0*%
%TO.N,+5V*%
X160020000Y-135890000D03*
%TO.P,U2,18,CMD*%
%TO.N,unconnected-(U2-CMD-Pad18)*%
X157480000Y-135890000D03*
%TO.P,U2,17,D3*%
%TO.N,unconnected-(U2-D3-Pad17)*%
X154940000Y-135890000D03*
%TO.P,U2,16,D2*%
%TO.N,unconnected-(U2-D2-Pad16)*%
X152400000Y-135890000D03*
%TO.P,U2,15,13*%
%TO.N,unconnected-(U2-13-Pad15)*%
X149860000Y-135890000D03*
%TO.P,U2,14,GND*%
%TO.N,GND*%
X147320000Y-135890000D03*
%TO.P,U2,13,12*%
%TO.N,unconnected-(U2-12-Pad13)*%
X144780000Y-135890000D03*
%TO.P,U2,12,14*%
%TO.N,STEP1*%
X142240000Y-135890000D03*
%TO.P,U2,11,27*%
%TO.N,DIR1*%
X139700000Y-135890000D03*
%TO.P,U2,10,26*%
%TO.N,STEP2*%
X137160000Y-135890000D03*
%TO.P,U2,9,25*%
%TO.N,DIR2*%
X134620000Y-135890000D03*
%TO.P,U2,8,33*%
%TO.N,Net-(U2-33)*%
X132080000Y-135890000D03*
%TO.P,U2,7,32*%
%TO.N,Net-(U2-32)*%
X129540000Y-135890000D03*
%TO.P,U2,6,35*%
%TO.N,lim2*%
X127000000Y-135890000D03*
%TO.P,U2,5,34*%
%TO.N,lim1*%
X124460000Y-135890000D03*
%TO.P,U2,4,VN*%
%TO.N,unconnected-(U2-VN-Pad4)*%
X121920000Y-135890000D03*
%TO.P,U2,3,VP*%
%TO.N,unconnected-(U2-VP-Pad3)*%
X119380000Y-135890000D03*
%TO.P,U2,2,EN*%
%TO.N,unconnected-(U2-EN-Pad2)*%
X116840000Y-135890000D03*
%TO.P,U2,1,3V3*%
%TO.N,+3V3*%
X114300000Y-135890000D03*
%TD*%
D10*
%TO.P,J3,2,Pin_2*%
%TO.N,+12V*%
X155900000Y-72390000D03*
D11*
%TO.P,J3,1,Pin_1*%
%TO.N,GND*%
X152400000Y-72390000D03*
%TD*%
M02*
